# xmcd
#
# Track frame offsets:
#	150
#	15022
#	26481
#	40518
#	52920
#	69498
#
# Disc length: 1112 seconds
#
# Revision: 0
# Processed by: cddbd v1.5.2PL0 Copyright (c) Steve Scherf et al.
# Submitted via: EasyCDDAExtractor 8.2.1.1
#
DISCID=35045606
DTITLE=The Prarie Oysters - You'll Have A Ball, That's No Bull
DYEAR=2006
DGENRE=Country Rock
TTITLE0=Rag Top
TTITLE1=One Woman Man
TTITLE2=Dixie Fried
TTITLE3=Wait A Minute
TTITLE4=Hot Rod Heart
TTITLE5=Heartbreak Train
EXTD=
EXTT0=
EXTT1=
EXTT2=
EXTT3=
EXTT4=
EXTT5=
PLAYORDER=
